<?xml version="1.0" encoding="UTF-8"?>
<!-- Generated by Pixelmator Pro 3.7 -->
<svg width="594" height="258" viewBox="0 0 594 258" xmlns="http://www.w3.org/2000/svg">
    <path id="Path" fill="#ffffff" stroke="none" d="M 127.169998 194.520004 L 127.169998 255.919998 L 65.769997 255.919998 C 31.860001 255.919998 4.37 228.429993 4.37 194.520004 C 4.37 160.610001 31.860001 133.119995 65.769997 133.119995 C 99.68 133.119995 127.169998 160.610001 127.169998 194.520004 Z"/>
    <path id="path1" fill="#ffffff" stroke="none" d="M 260.899994 123.75 L 200.339996 81.649994 L 138.110001 123.75 L 138.110001 0.959991 L 260.899994 0.959991 L 260.899994 123.75 Z"/>
    <path id="path2" fill="#2b0363" stroke="none" d="M 593.01001 83.790009 L 579.059998 83.790009 C 575.880005 78.899994 572.789978 74.839996 567.77002 71.709991 C 547.359985 59.009995 512.669983 67.850006 512.400024 95.540009 C 512.070007 129.889999 565.309998 136.190002 578.690002 107.880005 L 548.52002 107.880005 L 548.52002 96.580002 L 594.530029 96.580002 L 594.530029 135.75 L 585.809998 135.039993 L 583.960022 124.459991 C 568.570007 137.559998 547.77002 141.309998 528.51001 135.029999 C 496.959991 124.730011 487.290009 85.580002 514.219971 64.220001 C 537.940002 45.389999 584.450012 51.800003 593.01001 83.790009 Z"/>
    <path id="path3" fill="#2b0363" stroke="none" d="M 489.690002 55.169998 L 489.690002 67.980011 L 423.320007 67.980011 L 423.320007 87.559998 L 480.630005 87.559998 L 480.630005 99.610001 L 424.450012 99.610001 L 423.320007 100.73999 L 423.320007 123.720001 L 489.690002 122.959991 L 489.690002 135.770004 L 409.73999 135.770004 L 409.73999 55.169998 L 489.690002 55.169998 Z"/>
    <path id="path4" fill="#2b0363" stroke="none" d="M 398.440002 67.970001 L 360.73999 67.970001 L 360.73999 135.759995 L 347.160004 135.759995 L 347.160004 67.970001 L 308.700012 67.970001 L 308.700012 55.160004 L 397.309998 55.160004 L 398.440002 56.290009 L 398.440002 67.970001 Z"/>
    <path id="path5" fill="#ffffff" stroke="none" d="M 31.049999 62.089996 C 48.200001 62.089996 62.099998 48.190002 62.099998 31.040009 C 62.099998 13.889999 48.189999 0 31.049999 0 C 13.91 0 0 13.899994 0 31.050003 C 0 48.199997 13.9 62.100006 31.049999 62.100006 Z"/>
    <path id="path6" fill="#ffffff" stroke="none" d="M 93.18 62.149994 C 110.330002 62.149994 124.230003 48.25 124.230003 31.100006 C 124.230003 13.949997 110.32 0.059998 93.18 0.059998 C 76.040001 0.059998 62.130001 13.960007 62.130001 31.110001 C 62.130001 48.259995 76.029999 62.160004 93.18 62.160004 Z"/>
    <path id="path7" fill="#ffffff" stroke="none" d="M 31.049999 123.98999 C 48.200001 123.98999 62.099998 110.089996 62.099998 92.940002 C 62.099998 75.790009 48.200001 61.889999 31.049999 61.889999 C 13.9 61.889999 0 75.800003 0 92.940002 C 0 110.080002 13.9 123.98999 31.049999 123.98999 Z"/>
    <path id="path8" fill="#ffffff" stroke="none" d="M 93.18 124.029999 C 110.330002 124.029999 124.230003 110.130005 124.230003 92.980011 C 124.230003 75.830002 110.330002 61.929993 93.18 61.929993 C 76.029999 61.929993 62.130001 75.830002 62.130001 92.980011 C 62.130001 110.130005 76.029999 124.029999 93.18 124.029999 Z"/>
    <path id="path9" fill="#ffffff" stroke="none" d="M 219.960007 174.119995 L 219.960007 215 L 179.029999 215 L 179.029999 255.910004 L 138.110001 255.910004 L 138.110001 133.119995 L 260.899994 133.119995 L 260.899994 174.110001 L 219.960007 174.110001 Z"/>
    <path id="path10" fill="#ee58d3" stroke="none" d="M 126.650002 194.669998 L 126.650002 258 L 63.32 258 C 28.34 258 -0.01 229.649994 -0.01 194.669998 C -0.01 159.690002 28.34 131.339996 63.32 131.339996 C 98.300003 131.339996 126.650002 159.690002 126.650002 194.669998 Z"/>
    <path id="path11" fill="#107dff" stroke="none" d="M 262.690002 126.649994 L 200.220001 83.230011 L 136.039993 126.649994 L 136.039993 0 L 262.690002 0 L 262.690002 126.649994 Z"/>
    <path id="path12" fill="#08c270" stroke="none" d="M 31.07 62.139999 C 48.23 62.139999 62.150002 48.229996 62.150002 31.080002 C 62.150002 13.929993 48.240002 0.01001 31.07 0.01001 C 13.9 0.01001 0 13.919998 0 31.070007 C 0 48.220001 13.91 62.130005 31.07 62.130005 Z"/>
    <path id="path13" fill="#08c270" stroke="none" d="M 93.25 62.190002 C 110.410004 62.190002 124.32 48.279999 124.32 31.130005 C 124.32 13.979996 110.419998 0.070007 93.25 0.070007 C 76.080002 0.070007 62.18 13.979996 62.18 31.130005 C 62.18 48.279999 76.089996 62.190002 93.25 62.190002 Z"/>
    <path id="path14" fill="#08c270" stroke="none" d="M 31.07 124.050003 C 48.23 124.050003 62.150002 110.139999 62.150002 92.98999 C 62.150002 75.839996 48.240002 61.929993 31.07 61.929993 C 13.9 61.929993 0 75.830002 0 92.980011 C 0 110.130005 13.91 124.040009 31.07 124.040009 Z"/>
    <path id="path15" fill="#08c270" stroke="none" d="M 93.25 124.080002 C 110.410004 124.080002 124.32 110.169998 124.32 93.019989 C 124.32 75.869995 110.410004 61.959991 93.25 61.959991 C 76.089996 61.959991 62.18 75.869995 62.18 93.019989 C 62.18 110.169998 76.089996 124.080002 93.25 124.080002 Z"/>
    <path id="path16" fill="#ffbb00" stroke="none" d="M 220.470001 173.630005 L 220.470001 215.789993 L 178.259995 215.789993 L 178.259995 258 L 136.039993 258 L 136.039993 131.350006 L 262.690002 131.350006 L 262.690002 173.639999 L 220.470001 173.639999 Z"/>
</svg>
