<?xml version="1.0" encoding="UTF-8"?>
<svg id="Layer_1" data-name="Layer 1" xmlns="http://www.w3.org/2000/svg" viewBox="0 0 594.52 258">
  <defs>
    <style>
      .cls-1 {
        fill: #ee58d3;
      }

      .cls-2 {
        fill: #fb0;
      }

      .cls-3 {
        fill: #fff;
      }

      .cls-4 {
        fill: #107dff;
      }

      .cls-5 {
        fill: #08c270;
      }
    </style>
  </defs>
  <path class="cls-3" d="M127.17,194.52v61.4h-61.4c-33.91,0-61.4-27.49-61.4-61.4s27.49-61.4,61.4-61.4,61.4,27.49,61.4,61.4Z"/>
  <path class="cls-3" d="M260.9,123.75l-60.56-42.1-62.23,42.1V.96h122.79v122.79Z"/>
  <path class="cls-3" d="M593.01,83.79h-13.95c-3.18-4.89-6.27-8.95-11.29-12.08-20.41-12.7-55.1-3.86-55.37,23.83-.33,34.35,52.91,40.65,66.29,12.34h-30.17v-11.3h46.01v39.17l-8.72-.71-1.85-10.58c-15.39,13.1-36.19,16.85-55.45,10.57-31.55-10.3-41.22-49.45-14.29-70.81,23.72-18.83,70.23-12.42,78.79,19.57Z"/>
  <path class="cls-3" d="M489.69,55.17v12.81h-66.37v19.58h57.31v12.05h-56.18l-1.13,1.13v22.98l66.37-.76v12.81h-79.95V55.17h79.95Z"/>
  <path class="cls-3" d="M398.44,67.97h-37.7v67.79h-13.58v-67.79h-38.46v-12.81h88.61l1.13,1.13v11.68Z"/>
  <path class="cls-3" d="M31.05,62.09c17.15,0,31.05-13.9,31.05-31.05S48.19,0,31.05,0,0,13.9,0,31.05s13.9,31.05,31.05,31.05Z"/>
  <path class="cls-3" d="M93.18,62.15c17.15,0,31.05-13.9,31.05-31.05S110.32.06,93.18.06s-31.05,13.9-31.05,31.05,13.9,31.05,31.05,31.05Z"/>
  <path class="cls-3" d="M31.05,123.99c17.15,0,31.05-13.9,31.05-31.05s-13.9-31.05-31.05-31.05S0,75.8,0,92.94s13.9,31.05,31.05,31.05Z"/>
  <path class="cls-3" d="M93.18,124.03c17.15,0,31.05-13.9,31.05-31.05s-13.9-31.05-31.05-31.05-31.05,13.9-31.05,31.05,13.9,31.05,31.05,31.05Z"/>
  <path class="cls-3" d="M219.96,174.12v40.88h-40.93v40.91h-40.92v-122.79h122.79v40.99h-40.94Z"/>
  <path class="cls-1" d="M126.65,194.67v63.33h-63.33c-34.98,0-63.33-28.35-63.33-63.33s28.35-63.33,63.33-63.33,63.33,28.35,63.33,63.33Z"/>
  <path class="cls-4" d="M262.69,126.65l-62.47-43.42-64.18,43.42V0h126.65v126.65Z"/>
  <path class="cls-5" d="M31.07,62.14c17.16,0,31.08-13.91,31.08-31.06S48.24.01,31.07.01,0,13.92,0,31.07s13.91,31.06,31.07,31.06Z"/>
  <path class="cls-5" d="M93.25,62.19c17.16,0,31.07-13.91,31.07-31.06S110.42.07,93.25.07s-31.07,13.91-31.07,31.06,13.91,31.06,31.07,31.06Z"/>
  <path class="cls-5" d="M31.07,124.05c17.16,0,31.08-13.91,31.08-31.06s-13.91-31.06-31.08-31.06S0,75.83,0,92.98s13.91,31.06,31.07,31.06Z"/>
  <path class="cls-5" d="M93.25,124.08c17.16,0,31.07-13.91,31.07-31.06s-13.91-31.06-31.07-31.06-31.07,13.91-31.07,31.06,13.91,31.06,31.07,31.06Z"/>
  <path class="cls-2" d="M220.47,173.63v42.16h-42.21v42.21h-42.22v-126.65h126.65v42.29h-42.22Z"/>
</svg>